<svg width="42" height="42" viewBox="0 0 42 42" fill="none" xmlns="http://www.w3.org/2000/svg">
<path d="M13.1197 15.6322C13.1197 9.49919 16.9463 4.25547 22.3532 2.13719L22.3037 2.01187C16.8467 4.14974 12.9843 9.44195 12.9843 15.6322H13.1197ZM27.6869 30.1296C19.6416 30.1296 13.1197 23.6389 13.1197 15.6322H12.9843C12.9843 23.7133 19.5669 30.2643 27.6869 30.2643V30.1296ZM39.9277 23.4947C37.333 27.4874 32.8199 30.1296 27.6869 30.1296V30.2643C32.8678 30.2643 37.4228 27.5973 40.0413 23.5679L39.9277 23.4947ZM40.8603 23.8001C39.493 33.4455 31.1652 40.8653 21.0961 40.8653V41C31.2335 41 39.6177 33.5298 40.9943 23.8189L40.8603 23.8001ZM21.0961 40.8653C10.0721 40.8653 1.13533 31.9713 1.13533 21H1C1 32.0457 9.99738 41 21.0961 41V40.8653ZM1.13533 21C1.13533 10.0287 10.0721 1.13468 21.0961 1.13468V1C9.99738 1 1 9.95428 1 21H1.13533ZM21.0961 1.13468C21.4793 1.13468 21.86 1.14542 22.2378 1.16663L22.2455 1.03216C21.8651 1.01082 21.4819 1 21.0961 1V1.13468ZM40.0413 23.5679C40.1633 23.3801 40.384 23.3272 40.5702 23.3804C40.7551 23.4332 40.8908 23.5848 40.8603 23.8001L40.9943 23.8189C41.0363 23.5224 40.8417 23.3178 40.6076 23.251C40.3747 23.1844 40.0878 23.2484 39.9277 23.4947L40.0413 23.5679ZM22.3532 2.13719C22.6279 2.02961 22.748 1.7619 22.7289 1.52144C22.7095 1.2795 22.5465 1.04905 22.2455 1.03216L22.2378 1.16663C22.4563 1.17888 22.5787 1.34117 22.594 1.5321C22.6093 1.72451 22.5132 1.92979 22.3037 2.01187L22.3532 2.13719Z" fill="#FDFFF6"/>
<path d="M39.9845 23.5313L39.9277 23.4947M39.9277 23.4947C37.333 27.4874 32.8199 30.1296 27.6869 30.1296M39.9277 23.4947L40.0413 23.5679M39.9277 23.4947C40.0878 23.2484 40.3747 23.1844 40.6076 23.251C40.8417 23.3178 41.0363 23.5224 40.9943 23.8189M40.9273 23.8095L40.9943 23.8189M40.9943 23.8189C39.6177 33.5298 31.2335 41 21.0961 41M40.9943 23.8189L40.8603 23.8001M22.3284 2.07453L22.3037 2.01187M22.3037 2.01187L22.3532 2.13719M22.3037 2.01187C16.8467 4.14974 12.9843 9.44195 12.9843 15.6322M22.3037 2.01187C22.5132 1.92979 22.6093 1.72451 22.594 1.5321C22.5787 1.34117 22.4563 1.17888 22.2378 1.16663M13.1197 15.6322C13.1197 9.49919 16.9463 4.25547 22.3532 2.13719M13.1197 15.6322H12.9843M13.1197 15.6322C13.1197 23.6389 19.6416 30.1296 27.6869 30.1296M22.3532 2.13719C22.6279 2.02961 22.748 1.7619 22.7289 1.52144C22.7095 1.2795 22.5465 1.04905 22.2455 1.03216M12.9843 15.6322C12.9843 23.7133 19.5669 30.2643 27.6869 30.2643M27.6869 30.1296V30.2643M27.6869 30.2643C32.8678 30.2643 37.4228 27.5973 40.0413 23.5679M40.0413 23.5679C40.1633 23.3801 40.384 23.3272 40.5702 23.3804C40.7551 23.4332 40.8908 23.5848 40.8603 23.8001M40.8603 23.8001C39.493 33.4455 31.1652 40.8653 21.0961 40.8653M21.0961 40.8653V41M21.0961 40.8653C10.0721 40.8653 1.13533 31.9713 1.13533 21M21.0961 41C9.99738 41 1 32.0457 1 21M1.13533 21H1M1.13533 21C1.13533 10.0287 10.0721 1.13468 21.0961 1.13468M1 21C1 9.95428 9.99738 1 21.0961 1M21.0961 1.13468V1M21.0961 1.13468C21.4793 1.13468 21.86 1.14542 22.2378 1.16663M21.0961 1C21.4819 1 21.8651 1.01082 22.2455 1.03216M22.2378 1.16663L22.2455 1.03216" stroke="#FDFFF6" stroke-width="0.8"/>
</svg>
