<svg width="500" height="500" viewBox="0 0 500 500" fill="none" xmlns="http://www.w3.org/2000/svg">
<path d="M31.25 276.124V223.874L216.562 126.999V174.999L79.6875 249.045L216.594 324.592V373.03L31.25 276.124ZM465.844 137.374L304.141 362.952H248.625L410.641 137.358L465.844 137.374ZM421.047 335.936C422.88 335.972 424.698 335.602 426.37 334.85C428.042 334.099 429.528 332.986 430.719 331.592C433.403 328.403 434.786 324.319 434.594 320.155C434.75 315.897 433.375 311.722 430.719 308.389C429.598 306.935 428.158 305.755 426.509 304.944C424.861 304.133 423.048 303.711 421.211 303.711C419.373 303.711 417.561 304.133 415.913 304.944C414.264 305.755 412.823 306.935 411.703 308.389C409.047 311.722 407.672 315.897 407.828 320.155C407.631 324.291 408.947 328.358 411.531 331.592C412.683 332.992 414.139 334.111 415.787 334.864C417.436 335.617 419.234 335.983 421.047 335.936ZM455.203 352.217C445.877 360.647 433.745 365.302 421.173 365.272C408.602 365.244 396.491 360.535 387.203 352.061C382.93 347.892 379.534 342.911 377.216 337.409C374.897 331.909 373.703 326 373.703 320.03C373.703 314.061 374.897 308.152 377.216 302.65C379.534 297.149 382.93 292.167 387.203 287.999C396.488 279.502 408.617 274.789 421.203 274.789C433.789 274.789 445.919 279.502 455.203 287.999C459.559 292.12 463.012 297.1 465.344 302.625C467.677 308.149 468.836 314.097 468.75 320.092C468.866 326.086 467.72 332.038 465.389 337.561C463.058 343.085 459.594 348.056 455.219 352.155L455.203 352.217ZM294.078 204.077C295.911 204.113 297.73 203.742 299.402 202.991C301.073 202.239 302.559 201.127 303.75 199.733C306.434 196.544 307.817 192.46 307.625 188.295C307.781 184.038 306.406 179.863 303.75 176.53C302.627 175.077 301.186 173.902 299.539 173.092C297.891 172.283 296.078 171.861 294.242 171.861C292.406 171.861 290.594 172.283 288.945 173.092C287.298 173.902 285.858 175.077 284.734 176.53C282.078 179.863 280.703 184.038 280.859 188.295C280.663 192.431 281.978 196.499 284.562 199.733C285.714 201.133 287.17 202.252 288.819 203.005C290.467 203.758 292.266 204.124 294.078 204.077ZM328.234 220.311C318.908 228.741 306.777 233.395 294.205 233.366C281.633 233.338 269.522 228.628 260.234 220.155C255.961 215.986 252.566 211.005 250.247 205.503C247.928 200.003 246.734 194.094 246.734 188.124C246.734 182.155 247.928 176.245 250.247 170.744C252.566 165.242 255.961 160.261 260.234 156.093C269.519 147.595 281.648 142.883 294.234 142.883C306.82 142.883 318.95 147.595 328.234 156.093C332.605 160.231 336.066 165.234 338.395 170.784C340.725 176.334 341.873 182.31 341.766 188.327C341.87 194.308 340.719 200.244 338.389 205.753C336.058 211.263 332.598 216.222 328.234 220.311Z" fill="#90A93A"/>
</svg>
