<svg width="32" height="32" viewBox="0 0 32 32" fill="none" xmlns="http://www.w3.org/2000/svg">
<path d="M2 17.6719V14.3279L13.86 8.12793V11.1999L5.1 15.9389L13.862 20.7739V23.8739L2 17.6719ZM29.814 8.79193L19.465 23.2289H15.912L26.281 8.79093L29.814 8.79193ZM26.947 21.4999C27.0643 21.5022 27.1807 21.4785 27.2877 21.4304C27.3947 21.3823 27.4898 21.3111 27.566 21.2219C27.7378 21.0178 27.8263 20.7564 27.814 20.4899C27.824 20.2174 27.736 19.9502 27.566 19.7369C27.4943 19.6438 27.4021 19.5683 27.2966 19.5164C27.1911 19.4645 27.0751 19.4375 26.9575 19.4375C26.8399 19.4375 26.7239 19.4645 26.6184 19.5164C26.5129 19.5683 26.4207 19.6438 26.349 19.7369C26.179 19.9502 26.091 20.2174 26.101 20.4899C26.0884 20.7546 26.1726 21.0149 26.338 21.2219C26.4117 21.3115 26.5049 21.3831 26.6104 21.4313C26.7159 21.4795 26.831 21.5029 26.947 21.4999ZM29.133 22.5419C28.5361 23.0814 27.7597 23.3793 26.9551 23.3774C26.1505 23.3756 25.3754 23.0742 24.781 22.5319C24.5075 22.2651 24.2902 21.9463 24.1418 21.5942C23.9934 21.2422 23.917 20.864 23.917 20.4819C23.917 20.0999 23.9934 19.7217 24.1418 19.3696C24.2902 19.0175 24.5075 18.6987 24.781 18.4319C25.3752 17.8881 26.1515 17.5865 26.957 17.5865C27.7625 17.5865 28.5388 17.8881 29.133 18.4319C29.4118 18.6957 29.6328 19.0144 29.782 19.368C29.9313 19.7215 30.0055 20.1022 30 20.4859C30.0074 20.8695 29.9341 21.2504 29.7849 21.6039C29.6357 21.9574 29.414 22.2756 29.134 22.5379L29.133 22.5419ZM18.821 13.0609C18.9383 13.0632 19.0547 13.0395 19.1617 12.9914C19.2687 12.9433 19.3638 12.8721 19.44 12.7829C19.6118 12.5788 19.7003 12.3174 19.688 12.0509C19.698 11.7784 19.61 11.5112 19.44 11.2979C19.3681 11.2049 19.2759 11.1297 19.1705 11.0779C19.065 11.0261 18.949 10.9991 18.8315 10.9991C18.714 10.9991 18.598 11.0261 18.4925 11.0779C18.3871 11.1297 18.2949 11.2049 18.223 11.2979C18.053 11.5112 17.965 11.7784 17.975 12.0509C17.9624 12.3156 18.0466 12.5759 18.212 12.7829C18.2857 12.8725 18.3789 12.9441 18.4844 12.9923C18.5899 13.0405 18.705 13.0639 18.821 13.0609ZM21.007 14.0999C20.4101 14.6394 19.6337 14.9373 18.8291 14.9354C18.0245 14.9336 17.2494 14.6322 16.655 14.0899C16.3815 13.8231 16.1642 13.5043 16.0158 13.1522C15.8674 12.8002 15.791 12.422 15.791 12.0399C15.791 11.6579 15.8674 11.2797 16.0158 10.9276C16.1642 10.5755 16.3815 10.2567 16.655 9.98993C17.2492 9.4461 18.0255 9.14448 18.831 9.14448C19.6365 9.14448 20.4128 9.4461 21.007 9.98993C21.2867 10.2548 21.5082 10.575 21.6573 10.9302C21.8064 11.2854 21.8799 11.6678 21.873 12.0529C21.8797 12.4357 21.806 12.8156 21.6569 13.1682C21.5077 13.5208 21.2863 13.8382 21.007 14.0999Z" fill="#90A93A"/>
</svg>
