<svg width="500" height="500" viewBox="0 0 500 500" fill="none" xmlns="http://www.w3.org/2000/svg">
<g clip-path="url(#clip0_132_278)">
<path d="M10.4529 275.236C-3.48429 261.298 -3.48429 238.702 10.4529 224.764L224.764 10.4529C238.702 -3.48429 261.298 -3.48429 275.236 10.4529L489.547 224.764C503.484 238.702 503.484 261.298 489.547 275.236L275.236 489.547C261.298 503.484 238.702 503.484 224.764 489.547L10.4529 275.236Z" fill="#EE513B"/>
<path d="M181.233 54.6572L159.531 76.3597L215.583 132.412C213.314 137.276 212.048 142.702 212.048 148.423C212.048 164.666 222.255 178.525 236.602 183.938V321.055C222.255 326.467 212.048 340.327 212.048 356.569C212.048 377.527 229.037 394.516 249.995 394.516C270.952 394.516 287.942 377.527 287.942 356.569C287.942 341.844 279.555 329.077 267.295 322.788V184.125L320.875 237.705C318.719 242.471 317.519 247.763 317.519 253.335C317.519 274.291 334.508 291.28 355.464 291.28C376.422 291.28 393.411 274.291 393.411 253.335C393.411 232.377 376.422 215.388 355.464 215.388C351.392 215.388 347.47 216.028 343.792 217.216L286.247 159.671C287.348 156.118 287.942 152.339 287.942 148.423C287.942 127.466 270.952 110.476 249.995 110.476C246.08 110.476 242.302 111.07 238.747 112.171L181.233 54.6572Z" fill="white"/>
</g>
<defs>
<clipPath id="clip0_132_278">
<rect width="500" height="500" fill="white"/>
</clipPath>
</defs>
</svg>
