<svg width="500" height="500" viewBox="0 0 500 500" fill="none" xmlns="http://www.w3.org/2000/svg">
<path fill-rule="evenodd" clip-rule="evenodd" d="M250 19.9336C119.738 19.9336 14.1094 125.539 14.1094 255.824C14.1094 360.051 81.6992 448.469 175.426 479.664C187.211 481.852 191.539 474.547 191.539 468.316C191.539 462.691 191.32 444.109 191.219 424.398C125.594 438.668 111.746 396.566 111.746 396.566C101.016 369.301 85.5547 362.051 85.5547 362.051C64.1484 347.41 87.168 347.715 87.168 347.715C110.852 349.375 123.328 372.023 123.328 372.023C144.367 408.078 178.512 397.656 191.973 391.633C194.09 376.387 200.203 365.977 206.949 360.086C154.555 354.129 99.4727 333.898 99.4727 243.512C99.4727 217.758 108.691 196.715 123.781 180.191C121.328 174.254 113.254 150.262 126.062 117.77C126.062 117.77 145.867 111.43 190.945 141.949C209.766 136.719 229.949 134.09 250 134C270.039 134.09 290.234 136.711 309.09 141.941C354.113 111.422 373.895 117.762 373.895 117.762C386.734 150.25 378.66 174.246 376.211 180.184C391.336 196.707 400.488 217.75 400.488 243.504C400.488 334.105 345.305 354.051 292.777 359.895C301.242 367.215 308.781 381.574 308.781 403.578C308.781 435.141 308.508 460.543 308.508 468.312C308.508 474.59 312.758 481.945 324.711 479.629C418.383 448.402 485.895 360.012 485.895 255.824C485.891 125.547 380.273 19.9336 250 19.9336Z" fill="white"/>
<path d="M103.453 358.617C102.933 359.789 101.089 360.141 99.4096 359.34C97.6908 358.574 96.7338 356.977 97.2885 355.801C97.7963 354.59 99.644 354.258 101.351 355.066C103.07 355.836 104.046 357.449 103.449 358.621L103.453 358.617ZM113.007 369.277C111.886 370.32 109.687 369.836 108.195 368.184C106.648 366.543 106.359 364.344 107.503 363.285C108.667 362.246 110.8 362.738 112.347 364.379C113.886 366.043 114.191 368.223 113.011 369.281L113.007 369.277ZM122.312 382.859C120.867 383.867 118.499 382.926 117.038 380.828C115.593 378.726 115.593 376.207 117.078 375.203C118.535 374.195 120.867 375.105 122.351 377.184C123.788 379.312 123.788 381.836 122.312 382.859ZM135.05 395.988C133.761 397.414 131.003 397.031 128.988 395.09C126.929 393.187 126.355 390.48 127.648 389.059C128.96 387.629 131.73 388.027 133.757 389.957C135.816 391.855 136.437 394.566 135.058 395.984L135.05 395.988ZM152.628 403.609C152.054 405.457 149.406 406.297 146.73 405.508C144.062 404.699 142.316 402.539 142.863 400.672C143.41 398.809 146.078 397.937 148.769 398.777C151.437 399.582 153.183 401.73 152.628 403.609ZM171.937 405.019C172.003 406.965 169.738 408.574 166.937 408.613C164.113 408.68 161.828 407.101 161.8 405.187C161.8 403.223 164.019 401.633 166.839 401.578C169.64 401.527 171.941 403.09 171.941 405.016L171.937 405.019ZM189.898 401.965C190.234 403.859 188.285 405.809 185.499 406.328C182.765 406.836 180.226 405.656 179.874 403.777C179.538 401.832 181.523 399.883 184.257 399.379C187.046 398.898 189.546 400.039 189.898 401.965Z" fill="#181616"/>
</svg>
