<svg width="1367" height="500" viewBox="0 0 1367 500" fill="none" xmlns="http://www.w3.org/2000/svg">
<path d="M396.929 233.55V233.767L379.008 311.517C378.041 315.917 373.64 319.15 368.572 319.15H346.917C346.138 319.152 345.381 319.405 344.757 319.87C344.133 320.335 343.674 320.988 343.449 321.733C323.478 389.467 296.438 436.033 260.729 463.983C230.355 487.783 192.913 498.867 142.884 498.867C97.9396 498.867 67.6322 484.417 41.9259 455.9C7.96766 418.167 -6.06909 356.467 2.43298 282.1C17.7534 142.483 90.1877 1.59998 229.655 1.59998C272.082 1.21665 305.39 14.3 328.563 40.4333C353.068 68.05 365.505 109.667 365.572 164.117C365.511 166.504 364.52 168.774 362.811 170.442C361.101 172.111 358.808 173.046 356.419 173.05H254.228C252.437 172.995 250.736 172.256 249.473 170.985C248.211 169.714 247.485 168.007 247.443 166.217C246.609 128.567 235.44 110.217 213.234 110.217C174.058 110.217 150.953 163.383 138.7 192.867C121.579 234.033 112.86 278.733 114.577 323.267C115.394 344 118.728 373.167 138.416 385.233C155.87 395.95 180.776 388.85 195.863 376.983C210.934 365.133 223.07 344.617 228.171 325.9C228.888 323.3 228.938 321.283 228.255 320.367C227.538 319.45 225.554 319.233 224.037 319.233H197.797C196.408 319.238 195.035 318.939 193.774 318.357C192.513 317.776 191.394 316.926 190.496 315.867C189.806 315.04 189.317 314.066 189.065 313.019C188.814 311.973 188.807 310.883 189.045 309.833L206.983 231.933C207.866 227.933 211.484 224.933 215.935 224.383V224.2H388.144C388.544 224.2 388.961 224.2 389.344 224.283C393.812 224.85 396.963 229.017 396.879 233.55H396.929Z" fill="#0AE448"/>
<path d="M693.402 144.167C693.329 146.54 692.334 148.79 690.628 150.443C688.923 152.095 686.641 153.018 684.267 153.017H590.144C583.976 153.017 578.824 148.017 578.824 141.933C578.824 114.467 569.322 101.1 549.884 101.1C530.446 101.1 517.91 113.05 517.543 133.9C517.126 157.15 530.279 178.267 567.722 214.567C617.017 260.8 636.772 301.767 635.822 355.9C634.271 443.417 574.74 500 484.151 500C437.89 500 402.548 487.617 379.042 463.217C355.186 438.45 344.251 402.083 346.534 355.133C346.612 352.761 347.611 350.511 349.32 348.862C351.028 347.213 353.312 346.294 355.687 346.3H453.044C454.401 346.324 455.736 346.648 456.953 347.251C458.17 347.853 459.237 348.718 460.079 349.783C460.814 350.661 461.353 351.687 461.658 352.791C461.963 353.896 462.027 355.052 461.846 356.183C460.762 373.117 463.713 385.767 470.381 392.767C474.649 397.3 480.6 399.6 488.019 399.6C506.007 399.6 516.543 386.883 516.943 364.767C517.276 345.633 511.225 328.85 478.25 294.933C435.656 253.333 397.463 210.35 398.647 142.767C399.347 103.583 414.918 67.7333 442.508 41.8333C471.682 14.4667 511.575 0 557.886 0C604.281 0.333333 639.439 13.55 662.395 39.3167C684.133 63.75 694.603 99.0167 693.436 144.15L693.402 144.167Z" fill="#0AE448"/>
<path d="M985.173 483.533L985.79 17.9998C985.808 16.8339 985.593 15.6763 985.156 14.5948C984.72 13.5134 984.073 12.53 983.251 11.7024C982.429 10.8748 981.451 10.2197 980.372 9.77564C979.294 9.33156 978.138 9.10745 976.971 9.11647H831.302C826.401 9.11647 824.251 13.3165 822.85 16.1165L611.932 480.7V480.783L611.849 480.883C609.515 486.6 613.949 492.717 620.134 492.717H721.959C727.46 492.717 731.095 491.05 732.895 487.583L753.117 439C755.601 432.533 756.067 431.933 763.136 431.933H860.426C867.195 431.933 867.345 432.067 867.228 438.683L865.044 483.85C865.028 485.014 865.246 486.17 865.683 487.25C866.12 488.329 866.768 489.311 867.589 490.136C868.411 490.962 869.389 491.616 870.466 492.059C871.543 492.502 872.698 492.725 873.863 492.717H976.721C977.995 492.733 979.257 492.47 980.418 491.946C981.578 491.422 982.61 490.65 983.44 489.683C984.156 488.844 984.682 487.86 984.981 486.798C985.28 485.737 985.346 484.623 985.173 483.533ZM804.963 328.1C804.012 328.1 803.262 328.083 802.662 328.017C802.306 327.989 801.96 327.884 801.649 327.708C801.339 327.533 801.07 327.291 800.863 326.999C800.656 326.708 800.516 326.375 800.453 326.024C800.389 325.673 800.403 325.312 800.495 324.966C800.695 324.283 800.978 323.383 801.378 322.25L874.346 141.8C874.98 140.016 875.78 138.266 876.613 136.566C877.797 134.15 879.231 133.983 879.681 135.783C880.064 137.283 871.312 321.083 871.312 321.083C870.629 327.966 870.312 328.25 863.527 328.817L805.029 328.133H804.896L804.963 328.1Z" fill="#0AE448"/>
<path d="M1192.71 9.11689H1115.37C1111.29 9.11689 1106.7 11.2836 1105.62 16.1502L998.01 483.3C997.772 484.356 997.781 485.453 998.035 486.505C998.29 487.557 998.783 488.536 999.477 489.367C1000.37 490.424 1001.49 491.272 1002.75 491.854C1004.01 492.435 1005.38 492.735 1006.76 492.734H1103.42C1108.6 492.734 1112.17 490.184 1113.14 485.767C1113.14 485.767 1124.86 432.967 1124.87 432.8C1125.71 428.684 1124.27 425.484 1120.57 423.55C1118.82 422.65 1117.09 421.75 1115.37 420.834L1098.62 412.134L1081.95 403.434L1075.5 400.084C1074.97 399.82 1074.54 399.414 1074.24 398.912C1073.94 398.411 1073.78 397.835 1073.8 397.25C1073.82 396.388 1074.17 395.568 1074.79 394.964C1075.41 394.361 1076.23 394.021 1077.1 394.017L1130.08 394.25C1145.91 394.334 1161.77 393.217 1177.35 390.35C1287.05 370.1 1359.9 282.267 1362 162.75C1363.78 60.7502 1306.84 9.06689 1192.79 9.06689L1192.71 9.11689ZM1166.38 287.117H1164.32C1159.68 287.117 1158.85 286.617 1158.7 286.45C1158.63 286.334 1189.26 151.9 1189.27 151.717C1190.06 147.834 1190.02 145.6 1187.62 144.284C1184.56 142.584 1139.84 119.017 1139.84 119.017C1139.32 118.745 1138.89 118.332 1138.59 117.825C1138.29 117.318 1138.14 116.738 1138.16 116.15C1138.18 115.294 1138.54 114.48 1139.15 113.882C1139.77 113.284 1140.59 112.95 1141.44 112.95H1212.15C1234.15 113.617 1246.42 133.3 1245.84 166.9C1244.82 225.1 1217.15 285.067 1166.38 287.134V287.117Z" fill="#0AE448"/>
</svg>
