<svg width="40" height="40" viewBox="0 0 40 40" fill="none" xmlns="http://www.w3.org/2000/svg">
<path fill-rule="evenodd" clip-rule="evenodd" d="M6.25 30C6.25 29.6685 6.3817 29.3505 6.61612 29.1161C6.85054 28.8817 7.16848 28.75 7.5 28.75H32.5C32.8315 28.75 33.1495 28.8817 33.3839 29.1161C33.6183 29.3505 33.75 29.6685 33.75 30C33.75 30.3315 33.6183 30.6495 33.3839 30.8839C33.1495 31.1183 32.8315 31.25 32.5 31.25H7.5C7.16848 31.25 6.85054 31.1183 6.61612 30.8839C6.3817 30.6495 6.25 30.3315 6.25 30ZM6.25 20C6.25 19.6685 6.3817 19.3505 6.61612 19.1161C6.85054 18.8817 7.16848 18.75 7.5 18.75H32.5C32.8315 18.75 33.1495 18.8817 33.3839 19.1161C33.6183 19.3505 33.75 19.6685 33.75 20C33.75 20.3315 33.6183 20.6495 33.3839 20.8839C33.1495 21.1183 32.8315 21.25 32.5 21.25H7.5C7.16848 21.25 6.85054 21.1183 6.61612 20.8839C6.3817 20.6495 6.25 20.3315 6.25 20ZM6.25 10C6.25 9.66848 6.3817 9.35054 6.61612 9.11612C6.85054 8.8817 7.16848 8.75 7.5 8.75H32.5C32.8315 8.75 33.1495 8.8817 33.3839 9.11612C33.6183 9.35054 33.75 9.66848 33.75 10C33.75 10.3315 33.6183 10.6495 33.3839 10.8839C33.1495 11.1183 32.8315 11.25 32.5 11.25H7.5C7.16848 11.25 6.85054 11.1183 6.61612 10.8839C6.3817 10.6495 6.25 10.3315 6.25 10Z" fill="black"/>
</svg>
