<svg width="500" height="500" viewBox="0 0 500 500" fill="none" xmlns="http://www.w3.org/2000/svg">
<path d="M468.75 31.25H31.25V468.75H468.75V31.25Z" fill="#FFCA28"/>
<path d="M296.875 395.123L329.086 373.808C331.611 381.739 347.597 400.575 367.789 400.575C387.981 400.575 397.356 389.547 397.356 382.234C397.356 362.309 376.737 355.284 366.834 351.911C365.219 351.361 363.891 350.908 362.981 350.512C362.514 350.309 361.809 350.039 360.905 349.694C349.891 345.486 309.255 329.961 309.255 284.958C309.255 235.39 357.091 229.69 367.909 229.69C374.986 229.69 409.014 230.558 425.961 262.404L394.711 284.215C387.861 270.336 376.478 265.751 369.472 265.751C352.164 265.751 348.558 278.439 348.558 284.215C348.558 300.422 367.362 307.686 383.239 313.819C387.394 315.423 391.347 316.95 394.711 318.54C412.019 326.719 437.5 340.103 437.5 382.234C437.5 403.337 419.8 437.503 375.241 437.503C315.384 437.503 299.519 401.567 296.875 395.123Z" fill="#3E3E3E"/>
<path d="M140.625 399.354L174.198 378.051C176.828 385.978 187.052 400.594 201.883 400.594C216.716 400.594 224.308 385.359 224.308 378.051V234.378H265.597V378.051C266.266 397.869 255.275 437.503 206.769 437.503C162.172 437.503 143.632 410.998 140.625 399.354Z" fill="#3E3E3E"/>
</svg>
