<svg width="500" height="500" viewBox="0 0 500 500" fill="none" xmlns="http://www.w3.org/2000/svg">
<path d="M250 468.75C370.812 468.75 468.75 370.812 468.75 250C468.75 129.188 370.812 31.25 250 31.25C129.188 31.25 31.25 129.188 31.25 250C31.25 370.812 129.188 468.75 250 468.75Z" fill="#0769AD"/>
<path d="M354.021 209.705C373.662 209.705 391.645 203.155 405.548 192.291C391.113 211.309 367.199 223.744 340.14 223.744C296.059 223.744 260.324 190.745 260.324 150.04C260.324 127.47 271.31 107.27 288.613 93.75C279.534 105.714 274.205 120.283 274.205 136.001C274.205 176.706 309.94 209.705 354.021 209.705Z" fill="#78CFF5"/>
<path d="M404.788 260.291C383.613 276.9 356.2 286.919 326.258 286.919C259.178 286.919 204.798 236.636 204.798 174.608C204.798 150.55 212.98 128.259 226.908 109.983C200.645 130.585 183.977 161.325 183.977 195.666C183.977 257.694 238.356 307.978 305.436 307.978C346.5 307.978 382.803 289.136 404.788 260.291Z" fill="#78CFF5"/>
<path d="M406.25 324.533C376.077 353.326 334.277 371.153 288.086 371.153C196.089 371.153 121.512 300.442 121.512 213.215C121.512 185.575 129 159.594 142.158 136.995C112.238 165.547 93.75 204.883 93.75 248.312C93.75 335.539 168.327 406.25 260.323 406.25C323.167 406.25 377.884 373.251 406.25 324.533Z" fill="#78CFF5"/>
</svg>
