<svg width="232" height="232" viewBox="0 0 232 232" fill="none" xmlns="http://www.w3.org/2000/svg">
  <path 
    fill-rule="evenodd" 
    clip-rule="evenodd" 
    d="M0 58C0 25.9675 25.9675 0 58 0C90.033 0 116 25.9675 116 58C116 25.9675 141.967 0 174 0C206.033 0 232 25.9675 232 58C232 90.033 206.033 116 174 116C206.033 116 232 141.967 232 174C232 206.033 206.033 232 174 232C141.967 232 116 206.033 116 174C116 206.033 90.033 232 58 232C25.9675 232 0 206.033 0 174C0 141.967 25.9675 116 58 116C25.9675 116 0 90.033 0 58ZM116 146C132.569 146 146 132.569 146 116C146 99.4314 132.569 86 116 86C99.4314 86 86 99.4314 86 116C86 132.569 99.4314 146 116 146Z" 
    fill="#472918"
  />
</svg>
