<svg width="32" height="32" viewBox="0 0 32 32" fill="none" xmlns="http://www.w3.org/2000/svg">
<g clip-path="url(#clip0_97_8)">
<path d="M16 32C24.8366 32 32 24.8366 32 16C32 7.16344 24.8366 0 16 0C7.16344 0 0 7.16344 0 16C0 24.8366 7.16344 32 16 32Z" fill="#13AA52"/>
<path d="M20.2769 14.045C19.2663 9.58469 16.8778 8.11813 16.6206 7.55781C16.3394 7.1625 16.0544 6.45937 16.0544 6.45937C16.0497 6.4475 16.0422 6.42656 16.0335 6.40625C16.0044 6.80156 15.9894 6.95406 15.6156 7.35281C15.0369 7.80531 12.0675 10.2969 11.826 15.3644C11.6006 20.0906 15.24 22.9069 15.7322 23.2659L15.7881 23.3056V23.3022C15.7913 23.3259 15.9444 24.4272 16.0519 25.5941H16.4375C16.528 24.7692 16.6636 23.95 16.8438 23.14L16.875 23.1197C17.0952 22.9618 17.3051 22.7901 17.5035 22.6056L17.526 22.5853C18.5722 21.6187 20.4531 19.3831 20.4347 15.8188C20.4308 15.2242 20.378 14.6309 20.2769 14.045ZM16.011 20.5975C16.011 20.5975 16.011 13.9688 16.2297 13.97C16.4003 13.97 16.6213 22.5203 16.6213 22.5203C16.3175 22.4838 16.011 21.1131 16.011 20.5975Z" fill="white"/>
</g>
<defs>
<clipPath id="clip0_97_8">
<rect width="32" height="32" fill="white"/>
</clipPath>
</defs>
</svg>
