<svg width="500" height="500" viewBox="0 0 500 500" fill="none" xmlns="http://www.w3.org/2000/svg">
<g clip-path="url(#clip0_132_319)">
<mask id="mask0_132_319" style="mask-type:luminance" maskUnits="userSpaceOnUse" x="0" y="0" width="500" height="500">
<path d="M500 0H0V500H500V0Z" fill="white"/>
</mask>
<g mask="url(#mask0_132_319)">
<path d="M250 500C388.072 500 500 388.072 500 250C500 111.929 388.072 0 250 0C111.929 0 0 111.929 0 250C0 388.072 111.929 500 250 500Z" fill="#13AA52"/>
<path d="M316.827 219.453C301.037 149.761 263.716 126.846 259.698 118.091C255.304 111.914 250.851 100.928 250.851 100.928C250.777 100.742 250.66 100.415 250.524 100.098C250.069 106.274 249.835 108.657 243.994 114.888C234.952 121.958 188.555 160.889 184.782 240.069C181.26 313.916 238.126 357.92 245.816 363.53L246.69 364.15V364.097C246.74 364.467 249.132 381.675 250.812 399.908H256.837C258.251 387.019 260.369 374.219 263.185 361.563L263.673 361.245C267.113 358.778 270.393 356.095 273.493 353.213L273.844 352.895C290.191 337.792 319.58 302.861 319.293 247.169C319.232 237.878 318.407 228.608 316.827 219.453ZM250.173 321.836C250.173 321.836 250.173 218.263 253.59 218.281C256.255 218.281 259.708 351.88 259.708 351.88C254.962 351.309 250.173 329.892 250.173 321.836Z" fill="white"/>
</g>
</g>
<defs>
<clipPath id="clip0_132_319">
<rect width="500" height="500" fill="white"/>
</clipPath>
</defs>
</svg>
