<svg width="500" height="500" viewBox="0 0 500 500" fill="none" xmlns="http://www.w3.org/2000/svg">
<path d="M268.32 35.9175C257.23 29.6802 242.77 29.7082 231.67 35.9175C176.077 66.598 120.482 97.2877 64.8775 127.954C54.0576 133.646 46.76 145.265 46.8764 157.325V342.7C46.7982 354.995 54.4722 366.727 65.5711 372.341C81.5423 380.838 97.0593 390.197 113.319 398.128C132.102 407.358 155.6 409.398 174.612 399.773C190.045 391.797 196.9 374.055 196.88 357.75C197.005 296.572 196.9 235.392 196.928 174.213C197.295 171.494 195.253 168.588 192.287 168.653C185.183 168.541 178.069 168.588 170.964 168.634C168.28 168.381 165.659 170.611 165.862 173.309C165.767 234.094 165.881 294.897 165.805 355.691C165.959 364.1 160.278 372.181 152.174 375.022C133.456 381.583 80.0309 346.894 80.0309 346.894C78.0703 345.986 76.8253 343.859 77.0175 341.747C77.0175 280.588 77.027 219.427 77.0175 158.277C76.7479 155.811 78.2675 153.591 80.5315 152.584C135.943 122.084 191.325 91.5085 246.736 60.99C248.661 59.7055 251.344 59.7094 253.264 60.9994C308.675 91.5085 364.067 122.056 419.487 152.558C421.759 153.563 423.214 155.82 422.983 158.277C422.973 219.427 423.002 280.588 422.964 341.739C423.128 343.903 422.009 346 419.989 346.95C365.095 377.284 309.577 406.641 255.18 437.856C252.806 439.217 250.117 440.759 247.458 439.259C233.153 431.347 219.022 423.127 204.764 415.138C203.214 414.17 201.241 413.755 199.623 414.838C193.231 418.206 187.219 420.934 179.878 423.841C169.569 427.922 171.216 429.591 180.514 435.008C197.187 444.444 213.889 453.842 230.562 463.288C241.539 470.138 256.287 470.625 267.617 464.295C323.22 433.653 378.806 402.975 434.42 372.333C445.489 366.688 453.202 355.003 453.123 342.698V157.325C453.231 145.51 446.212 134.098 435.719 128.322C379.931 97.4918 324.117 66.7288 268.32 35.9175Z" fill="#8CC84B"/>
<path d="M352.214 175.102C330.39 163.427 304.428 162.805 280.176 164.331C262.656 166.063 244.229 170.897 231.465 183.456C218.373 196.081 215.523 216.469 221.742 232.95C226.198 244.597 237.415 252.17 249.015 256.177C263.957 261.452 279.651 263.083 295.35 264.714C309.668 266.202 323.992 267.691 337.754 271.945C343.376 273.808 349.923 276.658 351.645 282.775C353.236 290.019 351.492 298.439 345.611 303.472C326.929 318.258 274.964 315.992 256.506 304.355C249.043 299.397 245.828 290.62 244.52 282.256C244.375 279.65 242.276 277.259 239.446 277.458C232.361 277.374 225.275 277.392 218.189 277.449C215.717 277.241 213.146 279 213.011 281.524C211.554 319.831 246.737 336.531 279.745 340.208C298.603 342.005 317.875 341.902 336.445 337.855C350.404 334.677 364.401 328.824 374.011 318.072C385.861 305.005 388.19 285.55 382.876 269.274C378.814 257.128 367.203 249.338 355.334 245.33C339.193 239.795 320.065 236.82 305.446 235.428C284.198 233.405 258.948 234.231 252.934 220.269C250.536 212.958 252.576 203.88 259.295 199.383C277.071 187.325 313.251 188.927 331.661 197.935C340.114 202.167 345.012 210.861 347.034 219.638C347.409 222.216 349.143 224.906 352.128 224.794C359.165 224.935 366.203 224.831 373.239 224.841C375.656 225.01 378.303 223.645 378.775 221.17C378.476 202.827 369.109 184.049 352.214 175.102Z" fill="#8CC84B"/>
</svg>
