<svg width="32" height="32" viewBox="0 0 32 32" fill="none" xmlns="http://www.w3.org/2000/svg">
<path d="M17.1725 2.29872C16.4627 1.89953 15.5373 1.90132 14.8269 2.29872C11.2689 4.26227 7.71082 6.22641 4.15216 8.18906C3.45969 8.55335 2.99264 9.29698 3.00009 10.0688V21.9328C2.99509 22.7197 3.48622 23.4705 4.19655 23.8298C5.21871 24.3736 6.2118 24.9726 7.25244 25.4802C8.45451 26.0709 9.95843 26.2015 11.1752 25.5855C12.1629 25.075 12.6016 23.9395 12.6003 22.896C12.6083 18.9806 12.6016 15.0651 12.6034 11.1496C12.6269 10.9756 12.4962 10.7896 12.3064 10.7938C11.8517 10.7866 11.3964 10.7896 10.9417 10.7926C10.7699 10.7764 10.6022 10.9191 10.6152 11.0918C10.6091 14.982 10.6164 18.8734 10.6115 22.7642C10.6214 23.3024 10.2578 23.8196 9.73913 24.0014C8.5412 24.4213 5.12198 22.2012 5.12198 22.2012C4.9965 22.1431 4.91682 22.007 4.92912 21.8718C4.92912 17.9576 4.92973 14.0433 4.92912 10.1297C4.91187 9.97191 5.00912 9.8298 5.15402 9.76538C8.70033 7.8134 12.2448 5.85654 15.7911 3.90336C15.9143 3.82115 16.086 3.8214 16.2089 3.90396C19.7552 5.85654 23.3003 7.81161 26.8472 9.76368C26.9926 9.828 27.0857 9.9725 27.0709 10.1297C27.0703 14.0433 27.0721 17.9576 27.0697 21.8713C27.0802 22.0098 27.0086 22.144 26.8793 22.2048C23.3661 24.1462 19.8129 26.025 16.3315 28.0228C16.1796 28.1099 16.0075 28.2086 15.8373 28.1126C14.9218 27.6062 14.0174 27.0801 13.1049 26.5688C13.0057 26.5069 12.8794 26.4803 12.7759 26.5496C12.3668 26.7652 11.982 26.9398 11.5122 27.1258C10.8524 27.387 10.9578 27.4938 11.5529 27.8405C12.62 28.4444 13.6889 29.0459 14.756 29.6504C15.4585 30.0888 16.4024 30.12 17.1275 29.7149C20.6861 27.7538 24.2436 25.7904 27.8029 23.8293C28.5113 23.468 29.0049 22.7202 28.9999 21.9327V10.0688C29.0068 9.31264 28.5576 8.58227 27.886 8.21259C24.3156 6.23947 20.7435 4.27064 17.1725 2.29872Z" fill="#8CC84B"/>
<path d="M22.5417 11.2065C21.145 10.4593 19.4834 10.4195 17.9313 10.5172C16.81 10.628 15.6307 10.9374 14.8138 11.7412C13.9759 12.5492 13.7935 13.854 14.1915 14.9088C14.4767 15.6542 15.1946 16.1389 15.937 16.3953C16.8933 16.7329 17.8977 16.8373 18.9024 16.9417C19.8188 17.0369 20.7355 17.1322 21.6163 17.4045C21.9761 17.5237 22.3951 17.7061 22.5053 18.0976C22.6071 18.5612 22.4955 19.1001 22.1191 19.4222C20.9235 20.3685 17.5977 20.2235 16.4164 19.4787C15.9388 19.1614 15.733 18.5997 15.6493 18.0644C15.64 17.8976 15.5057 17.7446 15.3246 17.7573C14.8711 17.7519 14.4176 17.7531 13.9641 17.7567C13.8059 17.7434 13.6414 17.856 13.6327 18.0175C13.5395 20.4692 15.7912 21.538 17.9037 21.7733C19.1106 21.8883 20.344 21.8817 21.5325 21.6227C22.4259 21.4193 23.3217 21.0447 23.9367 20.3566C24.6951 19.5203 24.8442 18.2752 24.5041 17.2335C24.2441 16.4562 23.501 15.9576 22.7414 15.7011C21.7084 15.3469 20.4842 15.1565 19.5486 15.0674C18.1887 14.9379 16.5727 14.9908 16.1878 14.0972C16.0343 13.6293 16.1649 13.0483 16.5949 12.7605C17.7326 11.9888 20.0481 12.0913 21.2263 12.6678C21.7673 12.9387 22.0808 13.4951 22.2102 14.0568C22.2342 14.2218 22.3452 14.394 22.5362 14.3868C22.9866 14.3958 23.437 14.3892 23.8873 14.3898C24.042 14.4006 24.2114 14.3133 24.2416 14.1549C24.2225 12.9809 23.623 11.7791 22.5417 11.2065Z" fill="#8CC84B"/>
</svg>
