<svg width="500" height="500" viewBox="0 0 500 500" fill="none" xmlns="http://www.w3.org/2000/svg">
<path d="M411.1 171.531C405.914 169.745 400.539 168.056 395.005 166.458C395.914 162.747 396.748 159.083 397.492 155.48C409.675 96.3377 401.709 48.6919 374.506 33.0048C348.422 17.9631 305.764 33.6466 262.681 71.1402C258.539 74.7456 254.384 78.5628 250.231 82.5633C247.464 79.9164 244.702 77.3586 241.947 74.912C196.794 34.8214 151.536 17.9266 124.36 33.6591C98.3016 48.7444 90.5844 93.5359 101.552 149.586C102.611 155 103.849 160.528 105.249 166.15C98.8436 167.967 92.6598 169.906 86.7431 171.969C33.8073 190.423 0 219.348 0 249.352C0 280.339 36.2922 311.419 91.4291 330.264C95.7802 331.752 100.295 333.158 104.948 334.492C103.438 340.572 102.124 346.53 101.021 352.341C90.5639 407.417 98.7305 451.152 124.72 466.142C151.565 481.622 196.619 465.709 240.489 427.363C243.956 424.33 247.436 421.116 250.922 417.747C255.441 422.097 259.952 426.216 264.439 430.078C306.933 466.645 348.902 481.411 374.867 466.38C401.686 450.855 410.402 403.873 399.086 346.716C398.222 342.35 397.217 337.891 396.087 333.352C399.252 332.416 402.358 331.45 405.386 330.445C462.706 311.455 500 280.752 500 249.352C500 219.241 465.103 190.12 411.1 171.531ZM398.669 310.17C395.934 311.077 393.128 311.952 390.27 312.798C383.942 292.766 375.402 271.464 364.95 249.456C374.923 227.972 383.134 206.942 389.284 187.039C394.4 188.519 399.364 190.08 404.148 191.727C450.417 207.655 478.641 231.206 478.641 249.352C478.641 268.68 448.159 293.772 398.669 310.17ZM378.133 350.864C383.136 376.137 383.85 398.989 380.536 416.853C377.558 432.906 371.569 443.608 364.164 447.894C348.408 457.014 314.711 445.159 278.369 413.886C274.203 410.302 270.008 406.473 265.797 402.422C279.886 387.014 293.967 369.102 307.709 349.206C331.88 347.062 354.717 343.556 375.427 338.769C376.445 342.883 377.352 346.917 378.133 350.864ZM170.461 446.317C155.066 451.755 142.805 451.911 135.393 447.637C119.621 438.541 113.065 403.427 122.008 356.325C123.033 350.93 124.252 345.389 125.657 339.725C146.14 344.255 168.808 347.514 193.037 349.478C206.873 368.944 221.359 386.837 235.959 402.505C232.77 405.584 229.592 408.516 226.433 411.278C207.034 428.236 187.594 440.267 170.461 446.317ZM98.3372 310.053C73.9567 301.72 53.8223 290.889 40.0212 279.07C27.62 268.452 21.3589 257.908 21.3589 249.352C21.3589 231.145 48.5028 207.922 93.7741 192.139C99.2672 190.223 105.018 188.419 110.985 186.723C117.242 207.075 125.449 228.355 135.354 249.872C125.321 271.708 116.997 293.327 110.679 313.917C106.425 312.694 102.303 311.408 98.3372 310.053ZM122.514 145.484C113.117 97.4617 119.358 61.2355 135.062 52.145C151.789 42.4611 188.778 56.2684 227.764 90.8847C230.256 93.0972 232.758 95.413 235.266 97.8089C220.739 113.408 206.384 131.167 192.672 150.519C169.156 152.698 146.647 156.2 125.951 160.887C124.65 155.654 123.497 150.512 122.514 145.484ZM338.191 198.741C333.244 190.195 328.164 181.852 322.986 173.734C338.939 175.752 354.225 178.428 368.578 181.705C364.269 195.516 358.898 209.956 352.575 224.759C348.041 216.148 343.242 207.467 338.191 198.741ZM250.239 113.074C260.091 123.748 269.958 135.665 279.661 148.595C269.883 148.133 259.983 147.892 250 147.892C240.113 147.892 230.284 148.127 220.566 148.581C230.28 135.772 240.233 123.87 250.239 113.074ZM161.722 198.887C156.78 207.458 152.072 216.092 147.608 224.744C141.388 209.992 136.067 195.486 131.72 181.478C145.986 178.286 161.198 175.677 177.05 173.698C171.798 181.889 166.678 190.295 161.722 198.887ZM177.506 326.53C161.128 324.702 145.687 322.227 131.425 319.122C135.841 304.866 141.28 290.048 147.632 274.98C152.108 283.625 156.834 292.262 161.806 300.852C166.872 309.6 172.12 318.172 177.506 326.53ZM250.83 387.134C240.706 376.212 230.608 364.13 220.745 351.133C230.32 351.508 240.08 351.702 250 351.702C260.191 351.702 270.266 351.472 280.183 351.03C270.445 364.261 260.616 376.361 250.83 387.134ZM352.78 274.213C359.462 289.444 365.095 304.183 369.569 318.195C355.072 321.503 339.419 324.167 322.928 326.147C328.119 317.92 333.242 309.434 338.277 300.705C343.37 291.872 348.206 283.027 352.78 274.213ZM319.775 290.033C311.959 303.584 303.934 316.522 295.789 328.734C280.952 329.794 265.623 330.341 250 330.341C234.441 330.341 219.305 329.858 204.731 328.911C196.256 316.539 188.058 303.564 180.291 290.15C172.545 276.772 165.419 263.28 158.959 249.864C165.417 236.417 172.527 222.911 180.228 209.556C187.95 196.166 196.075 183.258 204.47 170.962C219.341 169.839 234.589 169.252 249.998 169.252C265.478 169.252 280.747 169.844 295.613 170.977C303.881 183.181 311.953 196.052 319.705 209.444C327.544 222.986 334.745 236.402 341.259 249.561C334.766 262.945 327.58 276.497 319.775 290.033ZM363.838 51.5097C380.581 61.1652 387.092 100.106 376.572 151.169C375.902 154.428 375.145 157.747 374.325 161.109C353.581 156.323 331.055 152.761 307.472 150.549C293.733 130.984 279.495 113.198 265.205 97.7991C269.047 94.103 272.883 90.5786 276.705 87.2527C313.617 55.1283 348.119 42.445 363.838 51.5097ZM250 204.703C274.658 204.703 294.648 224.692 294.648 249.352C294.648 274.009 274.658 294 250 294C225.342 294 205.352 274.009 205.352 249.352C205.352 224.692 225.342 204.703 250 204.703Z" fill="#58C4DC"/>
</svg>
