<svg width="500" height="500" viewBox="0 0 500 500" fill="none" xmlns="http://www.w3.org/2000/svg">
<path d="M140.625 214.056C155.208 155.723 191.667 126.557 250 126.557C337.5 126.557 348.438 192.181 392.188 203.119C421.355 210.411 446.875 199.474 468.75 170.306C454.167 228.639 417.708 257.806 359.375 257.806C271.875 257.806 260.937 192.181 217.187 181.244C188.02 173.952 162.5 184.889 140.625 214.056ZM31.25 345.306C45.8333 286.974 82.2917 257.806 140.625 257.806C228.125 257.806 239.063 323.431 282.813 334.369C311.98 341.661 337.5 330.724 359.375 301.556C344.792 359.889 308.333 389.056 250 389.056C162.5 389.056 151.563 323.431 107.813 312.494C78.6458 305.202 53.125 316.139 31.25 345.306Z" fill="#00BCFF"/>
</svg>
