<svg width="32" height="32" viewBox="0 0 32 32" fill="none" xmlns="http://www.w3.org/2000/svg">
<path d="M9 13.6996C9.93333 9.96628 12.2667 8.09961 16 8.09961C21.6 8.09961 22.3 12.2996 25.1 12.9996C26.9667 13.4663 28.6 12.7663 30 10.8996C29.0667 14.6329 26.7333 16.4996 23 16.4996C17.4 16.4996 16.7 12.2996 13.9 11.5996C12.0333 11.1329 10.4 11.8329 9 13.6996ZM2 22.0996C2.93333 18.3663 5.26667 16.4996 9 16.4996C14.6 16.4996 15.3 20.6996 18.1 21.3996C19.9667 21.8663 21.6 21.1663 23 19.2996C22.0667 23.0329 19.7333 24.8996 16 24.8996C10.4 24.8996 9.7 20.6996 6.9 19.9996C5.03333 19.5329 3.4 20.2329 2 22.0996Z" fill="#00BCFF"/>
</svg>
