<svg width="500" height="500" viewBox="0 0 500 500" fill="none" xmlns="http://www.w3.org/2000/svg">
<g clip-path="url(#clip0_132_355)">
<path d="M0 250V0H500V500H0" fill="#3178C6"/>
<path d="M109.625 250.875V271.25H174.625V456.25H220.75V271.25H285.75V251.25C285.75 240 285.75 230.875 285.25 230.625C285.25 230.25 245.625 230.125 197.5 230.125L110 230.5V251L109.625 250.875ZM401.75 230C414.5 233 424.25 238.75 433 247.875C437.625 252.875 444.5 261.625 445 263.875C445 264.625 423.375 279.25 410.25 287.375C409.75 287.75 407.75 285.625 405.75 282.375C399.25 273.125 392.625 269.125 382.25 268.375C367.25 267.375 357.25 275.25 357.25 288.375C357.25 292.375 358 294.625 359.5 297.875C362.875 304.75 369.125 308.875 388.5 317.375C424.25 332.75 439.75 342.875 449.125 357.375C459.75 373.625 462.125 399.125 455 418.25C447 439.125 427.5 453.25 399.625 457.875C390.875 459.375 370.875 459.125 361.5 457.5C341.5 453.75 322.375 443.75 310.625 430.875C306 425.875 297.125 412.5 297.625 411.625L302.375 408.625L321.125 397.75L335.25 389.5L338.5 393.875C342.625 400.375 351.875 409.125 357.25 412.125C373.5 420.5 395.25 419.375 406 409.625C410.625 405.375 412.625 400.875 412.625 394.625C412.625 388.875 411.75 386.25 408.875 381.875C404.875 376.375 396.875 371.875 374.375 361.875C348.5 350.875 337.5 343.875 327.25 333.125C321.375 326.625 316 316.5 313.5 308.125C311.625 300.875 311 283.125 312.75 276C318.125 251 337 233.5 364 228.5C372.75 226.75 393.375 227.5 402 229.75L401.75 230Z" fill="white"/>
</g>
<defs>
<clipPath id="clip0_132_355">
<rect width="500" height="500" fill="white"/>
</clipPath>
</defs>
</svg>
