<svg width="64" height="64" viewBox="0 0 64 64" fill="none" xmlns="http://www.w3.org/2000/svg">
<path fill-rule="evenodd" clip-rule="evenodd" d="M0 16C0 7.16345 7.16345 0 16 0C24.8367 0 32 7.16345 32 16C32 7.16345 39.1633 0 48 0C56.8367 0 64 7.16345 64 16C64 24.8367 56.8367 32 48 32C56.8367 32 64 39.1633 64 48C64 56.8367 56.8367 64 48 64C39.1633 64 32 56.8367 32 48C32 56.8367 24.8367 64 16 64C7.16345 64 0 56.8367 0 48C0 39.1633 7.16345 32 16 32C7.16345 32 0 24.8367 0 16ZM32 40.2759C36.5708 40.2759 40.2759 36.5708 40.2759 32C40.2759 27.4294 36.5708 23.7241 32 23.7241C27.4294 23.7241 23.7241 27.4294 23.7241 32C23.7241 36.5708 27.4294 40.2759 32 40.2759Z" fill="#472918"/>
</svg>
