<svg width="33" height="49" viewBox="0 0 33 49" fill="none" xmlns="http://www.w3.org/2000/svg">
<path d="M0.129639 40.3706C0.129639 35.9329 3.72712 32.3354 8.16484 32.3354H16.2V40.3706C16.2 44.8084 12.6026 48.4058 8.16483 48.4058V48.4058C3.72712 48.4058 0.129639 44.8084 0.129639 40.3706V40.3706Z" fill="#0ACF83"/>
<path d="M16.2 24.2998C16.2 19.8622 19.7974 16.2646 24.2351 16.2646V16.2646C28.6728 16.2646 32.2703 19.8621 32.2703 24.2998V24.2998C32.2703 28.7376 28.6728 32.335 24.2351 32.335V32.335C19.7974 32.335 16.2 28.7375 16.2 24.2998V24.2998Z" fill="#1ABCFE"/>
<path d="M0.129639 24.3003C0.129639 28.738 3.72712 32.3354 8.16484 32.3354H16.2L16.2 16.2651L8.16483 16.2651C3.72711 16.2651 0.129639 19.8625 0.129639 24.3003V24.3003Z" fill="#A259FF"/>
<path d="M16.2 0.194336V16.2647H24.2352C28.6729 16.2647 32.2703 12.6672 32.2703 8.22953V8.22953C32.2703 3.79181 28.6729 0.194336 24.2351 0.194336L16.2 0.194336Z" fill="#FF7262"/>
<path d="M0.129639 8.22945C0.129639 12.6672 3.72712 16.2646 8.16484 16.2646L16.2 16.2646L16.2 0.194256L8.16483 0.194256C3.72711 0.194256 0.129639 3.79174 0.129639 8.22945V8.22945Z" fill="#F24E1E"/>
</svg>
