<svg width="64" height="62" viewBox="0 0 64 62" fill="none" xmlns="http://www.w3.org/2000/svg">
<path d="M12.5051 60.2083C14.1587 61.413 16.0785 61.9945 17.9843 61.9945C20.8525 61.9945 23.6831 60.6773 25.5047 58.202C25.5099 58.1967 25.5149 58.1912 25.5196 58.1855C25.5239 58.1797 25.5283 58.1739 25.5325 58.1681L25.5388 58.159C25.5432 58.1529 25.5473 58.1469 25.5514 58.1411L31.9976 49.2486L38.4437 58.1411C38.45 58.1507 38.4566 58.1582 38.463 58.1664C38.466 58.1703 38.4687 58.1742 38.4718 58.1786C41.508 62.3273 47.3422 63.2413 51.4948 60.213C55.6521 57.1849 56.5816 51.3299 53.5826 47.1486L53.5761 47.1382C53.5706 47.1293 53.5662 47.1227 53.5593 47.1158L47.1271 38.2184L57.5485 34.8153C62.4438 33.2168 65.1342 27.9151 63.5414 23.0023C61.9488 18.0897 56.6703 15.3896 51.7703 16.9834L41.3493 20.3726L41.3446 9.37065C41.3397 4.20481 37.1497 0 32.0022 0C26.8548 0 22.6648 4.20481 22.6601 9.37533L22.6508 20.368L12.2296 16.9787C12.2255 16.9787 12.2204 16.9778 12.2154 16.9764C12.2088 16.9746 12.2021 16.972 12.1968 16.9693C7.30622 15.3943 2.04657 18.0943 0.458401 22.9979C-1.12979 27.9011 1.54212 33.184 6.41404 34.7966C6.41854 34.798 6.42258 34.7996 6.42645 34.8013L6.44362 34.8079L6.45145 34.8106L16.8679 38.2137L10.4358 47.1112C10.4335 47.1158 10.43 47.1205 10.4265 47.1252C10.423 47.1299 10.4195 47.1346 10.4172 47.1393C7.41365 51.3205 8.34788 57.1802 12.5051 60.2083Z" fill="#00D4FF"/>
</svg>
