<svg width="64" height="71" viewBox="0 0 64 71" fill="none" xmlns="http://www.w3.org/2000/svg">
<path fill-rule="evenodd" clip-rule="evenodd" d="M40.8607 19.9976C59.376 -1.51242 77.4449 30.3046 49.7836 35.458C77.4449 40.8356 59.1529 72.4285 40.8607 50.9182C50.2298 77.8058 13.8685 77.5819 23.2377 50.9182C4.72241 72.4285 -13.3467 40.8356 14.3147 35.458C-13.5698 30.3046 4.72241 -1.28837 23.2377 19.9976C13.6454 -6.66587 50.2298 -6.66587 40.8607 19.9976ZM31.9375 31.4249C34.1685 31.4249 36.176 33.2174 36.176 35.458C36.176 37.6986 34.1685 39.7153 31.9375 39.7153C29.7069 39.7153 27.9221 37.6986 27.9221 35.458C27.9221 33.2174 29.7069 31.4249 31.9375 31.4249Z" fill="#FF6B9D"/>
</svg>
