<svg width="44" height="44" viewBox="0 0 44 44" fill="none" xmlns="http://www.w3.org/2000/svg">
<g clip-path="url(#clip0_97_16)">
<path fill-rule="evenodd" clip-rule="evenodd" d="M0 11C0 4.92487 4.92487 0 11 0C17.0752 0 22 4.92487 22 11C22 4.92487 26.9248 0 33 0C39.0752 0 44 4.92487 44 11C44 17.0752 39.0752 22 33 22C39.0752 22 44 26.9248 44 33C44 39.0752 39.0752 44 33 44C26.9248 44 22 39.0752 22 33C22 39.0752 17.0752 44 11 44C4.92487 44 0 39.0752 0 33C0 26.9248 4.92487 22 11 22C4.92487 22 0 17.0752 0 11ZM22 27.6897C25.1424 27.6897 27.6897 25.1424 27.6897 22C27.6897 18.8577 25.1424 16.3103 22 16.3103C18.8577 16.3103 16.3103 18.8577 16.3103 22C16.3103 25.1424 18.8577 27.6897 22 27.6897Z" fill="#472918"/>
</g>
<defs>
<clipPath id="clip0_97_16">
<rect width="44" height="44" fill="white"/>
</clipPath>
</defs>
</svg>
