<svg width="32" height="32" viewBox="0 0 32 32" fill="none" xmlns="http://www.w3.org/2000/svg">
<path d="M0.668983 17.6151C-0.222994 16.7231 -0.222994 15.2769 0.668983 14.3849L14.3849 0.668983C15.2769 -0.222994 16.7231 -0.222994 17.6151 0.668983L31.331 14.3849C32.223 15.2769 32.223 16.7231 31.331 17.6151L17.6151 31.331C16.7231 32.223 15.2769 32.223 14.3849 31.331L0.668983 17.6151Z" fill="#EE513B"/>
<path d="M11.5989 3.49805L10.21 4.88701L13.7973 8.47434C13.6521 8.78567 13.5711 9.1329 13.5711 9.49906C13.5711 10.5386 14.2243 11.4256 15.1425 11.772V20.5475C14.2243 20.8939 13.5711 21.7809 13.5711 22.8204C13.5711 24.1617 14.6584 25.249 15.9997 25.249C17.3409 25.249 18.4283 24.1617 18.4283 22.8204C18.4283 21.878 17.8915 21.0609 17.1069 20.6584V11.784L20.536 15.2131C20.398 15.5181 20.3212 15.8568 20.3212 16.2134C20.3212 17.5546 21.4085 18.6419 22.7497 18.6419C24.091 18.6419 25.1783 17.5546 25.1783 16.2134C25.1783 14.8721 24.091 13.7848 22.7497 13.7848C22.4891 13.7848 22.2381 13.8258 22.0027 13.9018L18.3198 10.2189C18.3903 9.99152 18.4283 9.74969 18.4283 9.49906C18.4283 8.15778 17.3409 7.07046 15.9997 7.07046C15.7491 7.07046 15.5073 7.10844 15.2798 7.17894L11.5989 3.49805Z" fill="white"/>
</svg>
