<svg width="450" height="443" viewBox="0 0 450 443" fill="none" xmlns="http://www.w3.org/2000/svg">
<path fill-rule="evenodd" clip-rule="evenodd" d="M225.186 0C100.664 0 0 101.406 0 226.859C0 327.141 64.4989 412.027 153.976 442.071C165.163 444.329 169.261 437.19 169.261 431.184C169.261 425.924 168.892 407.897 168.892 389.114C106.251 402.638 93.2061 362.071 93.2061 362.071C83.1392 335.779 68.2233 329.021 68.2233 329.021C47.7208 315.124 69.7167 315.124 69.7167 315.124C92.4594 316.627 104.393 338.411 104.393 338.411C124.522 372.963 156.958 363.2 170.007 357.189C171.87 342.541 177.839 332.4 184.177 326.767C134.216 321.508 81.6504 301.978 81.6504 214.838C81.6504 190.049 90.5926 169.768 104.762 153.994C102.526 148.362 94.6949 125.071 107.002 93.8975C107.002 93.8975 126.016 87.8869 168.887 117.184C187.242 112.218 206.171 109.692 225.186 109.671C244.2 109.671 263.582 112.303 281.48 117.184C324.357 87.8869 343.37 93.8975 343.37 93.8975C355.677 125.071 347.841 148.362 345.606 153.994C360.149 169.768 368.722 190.049 368.722 214.838C368.722 301.978 316.157 321.13 265.822 326.767C274.027 333.903 281.107 347.422 281.107 368.833C281.107 399.254 280.738 423.67 280.738 431.179C280.738 437.19 284.841 444.329 296.023 442.075C385.5 412.022 449.999 327.141 449.999 226.859C450.368 101.406 349.335 0 225.186 0Z" fill="#1A1A1A"/>
</svg>