<svg width="400" height="400" viewBox="0 0 400 400" fill="none" xmlns="http://www.w3.org/2000/svg">
<path d="M93.1097 128.244H12.809C9.24516 128.244 6.35742 131.133 6.35742 134.696V392.667C6.35742 396.231 9.24516 399.119 12.809 399.119H93.1097C96.6736 399.119 99.5613 396.231 99.5613 392.667V134.696C99.5613 131.133 96.6736 128.244 93.1097 128.244Z" fill="#1A1A1A"/>
<path d="M52.9884 0C23.7703 0 0 23.7445 0 52.9303C0 82.129 23.7703 105.883 52.9884 105.883C82.1832 105.883 105.934 82.1277 105.934 52.9303C105.935 23.7445 82.1832 0 52.9884 0Z" fill="#1A1A1A"/>
<path d="M297.36 121.832C265.108 121.832 241.267 135.697 226.806 151.45V134.696C226.806 131.133 223.919 128.244 220.355 128.244H143.453C139.889 128.244 137.001 131.133 137.001 134.696V392.667C137.001 396.231 139.889 399.119 143.453 399.119H223.578C227.142 399.119 230.03 396.231 230.03 392.667V265.031C230.03 222.021 241.712 205.265 271.694 205.265C304.347 205.265 306.942 232.126 306.942 267.244V392.668C306.942 396.232 309.83 399.12 313.394 399.12H393.548C397.112 399.12 400 396.232 400 392.668V251.166C400 187.212 387.805 121.832 297.36 121.832Z" fill="#1A1A1A"/>
</svg>
